<svg version="1.1" id="Layer_1" xmlns="http://www.w3.org/2000/svg" xmlns:xlink="http://www.w3.org/1999/xlink" x="0px" y="0px"
	 viewBox="0 0 81 81" style="enable-background:new 0 0 81 81;" xml:space="preserve">
<style type="text/css">
	.epbs-logo-st0{display:none;fill:#D9DDE0;}
	.epbs-logo-st1{opacity:0.2;}
	.epbs-logo-st2{opacity:0.6;}
	.epbs-logo-st3{opacity:0;fill:url(#Rectangle_7_3_);fill-opacity:0;}
	.epbs-logo-st4{opacity:9.090909e-02;fill:url(#SVGID_1_);fill-opacity:9.090909e-02;}
	.epbs-logo-st5{opacity:0.1818;fill:url(#SVGID_2_);fill-opacity:0.1818;}
	.epbs-logo-st6{opacity:0.2727;fill:url(#SVGID_3_);fill-opacity:0.2727;}
	.epbs-logo-st7{opacity:0.3636;fill:url(#SVGID_4_);fill-opacity:0.3636;}
	.epbs-logo-st8{opacity:0.4545;fill:url(#SVGID_5_);fill-opacity:0.4545;}
	.epbs-logo-st9{opacity:0.5455;fill:url(#SVGID_6_);fill-opacity:0.5455;}
	.epbs-logo-st10{opacity:0.6364;fill:url(#SVGID_7_);fill-opacity:0.6364;}
	.epbs-logo-st11{opacity:0.7273;fill:url(#SVGID_8_);fill-opacity:0.7273;}
	.epbs-logo-st12{opacity:0.8182;fill:url(#SVGID_9_);fill-opacity:0.8182;}
	.epbs-logo-st13{opacity:0.9091;fill:url(#SVGID_10_);fill-opacity:0.9091;}
	.epbs-logo-st14{fill:url(#Rectangle_7_7_);}
	.epbs-logo-st15{fill:#FFFFFF;}
	.epbs-logo-st16{clip-path:url(#SVGID_12_);}
	.epbs-logo-st17{fill:#455CA8;}
	.epbs-logo-st18{fill:#D43329;}
	.epbs-logo-st19{fill:#63C1EC;}
</style>
<rect id="Background" x="-48" y="-48" class="epbs-logo-st0" width="180" height="180"/>
<g>
	<g id="Shadow_1_" class="epbs-logo-st1">
		<g class="epbs-logo-st2">
			<linearGradient id="Rectangle_7_3_" gradientUnits="userSpaceOnUse" x1="40.457" y1="80.9141" x2="40.457" y2="-9.094947e-13">
				<stop  offset="0" style="stop-color:#17171A"/>
				<stop  offset="1" style="stop-color:#3F4045"/>
			</linearGradient>
			<path id="Rectangle_7_2_" class="epbs-logo-st3" d="M25,80.9c-9.2,0-14.5,0-19.7-5.3C0,70.4,0,65.1,0,55.9V25c0-9.2,0-14.5,5.3-19.7
				C10.6,0,15.8,0,25,0h30.9c9.2,0,14.5,0,19.7,5.3c5.3,5.3,5.3,10.6,5.3,19.7v30.9c0,9.2,0,14.5-5.3,19.7
				c-5.3,5.3-10.6,5.3-19.7,5.3H25z"/>
			<linearGradient id="SVGID_1_" gradientUnits="userSpaceOnUse" x1="40.4289" y1="80.6243" x2="40.4289" y2="0.2966">
				<stop  offset="0" style="stop-color:#17171A"/>
				<stop  offset="1" style="stop-color:#3F4045"/>
			</linearGradient>
			<path class="epbs-logo-st4" d="M25.1,80.6c-9.1,0-14.3,0-19.6-5.2c-5.2-5.2-5.2-10.5-5.2-19.6V25.1c0-9.1,0-14.3,5.2-19.6
				C10.7,0.3,16,0.3,25.1,0.3h30.7c9.1,0,14.3,0,19.6,5.2c5.2,5.2,5.2,10.5,5.2,19.6v30.7c0,9.1,0,14.3-5.2,19.6
				c-5.2,5.2-10.5,5.2-19.6,5.2H25.1z"/>
			<linearGradient id="SVGID_2_" gradientUnits="userSpaceOnUse" x1="40.4008" y1="80.3346" x2="40.4008" y2="0.5932">
				<stop  offset="0" style="stop-color:#17171A"/>
				<stop  offset="1" style="stop-color:#3F4045"/>
			</linearGradient>
			<path class="epbs-logo-st5" d="M25.2,80.3c-9,0-14.2,0-19.4-5.2c-5.2-5.2-5.2-10.4-5.2-19.4V25.2c0-9,0-14.2,5.2-19.4
				c5.2-5.2,10.4-5.2,19.4-5.2h30.5c9,0,14.2,0,19.4,5.2c5.2,5.2,5.2,10.4,5.2,19.4v30.5c0,9,0,14.2-5.2,19.4
				c-5.1,5.1-10.5,5.2-19.4,5.2H25.2z"/>
			<linearGradient id="SVGID_3_" gradientUnits="userSpaceOnUse" x1="40.3727" y1="80.0448" x2="40.3727" y2="0.8897">
				<stop  offset="0" style="stop-color:#17171A"/>
				<stop  offset="1" style="stop-color:#3F4045"/>
			</linearGradient>
			<path class="epbs-logo-st6" d="M25.3,80c-9,0-14.1,0-19.3-5.2c-5.2-5.2-5.2-10.3-5.2-19.3V25.4c0-9,0-14.1,5.2-19.3
				c5.2-5.2,10.3-5.2,19.3-5.2h30.2c9,0,14.1,0,19.3,5.2C80,11.2,80,16.4,80,25.4v30.2c0,9,0,14.1-5.2,19.3c-5,5-10.5,5.2-19.3,5.2
				H25.3z"/>
			<linearGradient id="SVGID_4_" gradientUnits="userSpaceOnUse" x1="40.3446" y1="79.7551" x2="40.3446" y2="1.1863">
				<stop  offset="0" style="stop-color:#17171A"/>
				<stop  offset="1" style="stop-color:#3F4045"/>
			</linearGradient>
			<path class="epbs-logo-st7" d="M25.3,79.8c-8.9,0-14,0-19.2-5.1c-5.1-5.1-5.1-10.2-5.1-19.2v-30c0-8.9,0-14,5.1-19.2
				c5.1-5.1,10.2-5.1,19.2-5.1h30c8.9,0,14,0,19.2,5.1c5.1,5.1,5.1,10.2,5.1,19.2v30c0,8.9,0,14-5.1,19.2
				c-4.8,4.8-10.5,5.1-19.2,5.1H25.3z"/>
			<linearGradient id="SVGID_5_" gradientUnits="userSpaceOnUse" x1="40.3165" y1="79.4653" x2="40.3165" y2="1.4829">
				<stop  offset="0" style="stop-color:#17171A"/>
				<stop  offset="1" style="stop-color:#3F4045"/>
			</linearGradient>
			<path class="epbs-logo-st8" d="M25.4,79.5c-8.8,0-13.9,0-19-5.1c-5.1-5.1-5.1-10.2-5.1-19V25.6c0-8.8,0-13.9,5.1-19
				c5.1-5.1,10.2-5.1,19-5.1h29.8c8.8,0,13.9,0,19,5.1c5.1,5.1,5.1,10.2,5.1,19v29.8c0,8.8,0,13.9-5.1,19c-4.7,4.7-10.5,5.1-19,5.1
				H25.4z"/>
			<linearGradient id="SVGID_6_" gradientUnits="userSpaceOnUse" x1="40.2884" y1="79.1755" x2="40.2884" y2="1.7795">
				<stop  offset="0" style="stop-color:#17171A"/>
				<stop  offset="1" style="stop-color:#3F4045"/>
			</linearGradient>
			<path class="epbs-logo-st9" d="M25.5,79.2c-8.8,0-13.8,0-18.9-5c-5-5-5-10.1-5-18.9V25.7c0-8.8,0-13.8,5-18.9c5-5,10.1-5,18.9-5h29.6
				c8.8,0,13.8,0,18.9,5c5,5,5,10.1,5,18.9v29.6c0,8.8,0,13.8-5,18.9c-4.6,4.6-10.5,5-18.9,5H25.5z"/>
			<linearGradient id="SVGID_7_" gradientUnits="userSpaceOnUse" x1="40.2603" y1="78.8858" x2="40.2603" y2="2.0761">
				<stop  offset="0" style="stop-color:#17171A"/>
				<stop  offset="1" style="stop-color:#3F4045"/>
			</linearGradient>
			<path class="epbs-logo-st10" d="M25.6,78.9c-8.7,0-13.7,0-18.7-5c-5-5-5-10-5-18.7V25.8c0-8.7,0-13.7,5-18.7c5-5,10-5,18.7-5h29.3
				c8.7,0,13.7,0,18.7,5c5,5,5,10,5,18.7v29.3c0,8.7,0,13.7-5,18.7c-4.5,4.5-10.5,5-18.7,5H25.6z"/>
			<linearGradient id="SVGID_8_" gradientUnits="userSpaceOnUse" x1="40.2322" y1="78.596" x2="40.2322" y2="2.3726">
				<stop  offset="0" style="stop-color:#17171A"/>
				<stop  offset="1" style="stop-color:#3F4045"/>
			</linearGradient>
			<path class="epbs-logo-st11" d="M25.7,78.6c-8.6,0-13.6,0-18.6-5c-5-5-5-9.9-5-18.6V25.9c0-8.6,0-13.6,5-18.6c5-5,9.9-5,18.6-5h29.1
				c8.6,0,13.6,0,18.6,5c5,5,5,9.9,5,18.6V55c0,8.6,0,13.6-5,18.6c-4.4,4.4-10.5,5-18.6,5H25.7z"/>
			<linearGradient id="SVGID_9_" gradientUnits="userSpaceOnUse" x1="40.2041" y1="78.3063" x2="40.2041" y2="2.6692">
				<stop  offset="0" style="stop-color:#17171A"/>
				<stop  offset="1" style="stop-color:#3F4045"/>
			</linearGradient>
			<path class="epbs-logo-st12" d="M25.8,78.3c-8.6,0-13.5,0-18.4-4.9c-4.9-4.9-4.9-9.9-4.9-18.4V26c0-8.6,0-13.5,4.9-18.4
				c4.9-4.9,9.9-4.9,18.4-4.9h28.9c8.6,0,13.5,0,18.4,4.9C78,12.5,78,17.5,78,26v28.9c0,8.6,0,13.5-4.9,18.4
				c-4.3,4.3-10.5,4.9-18.4,4.9H25.8z"/>
			<linearGradient id="SVGID_10_" gradientUnits="userSpaceOnUse" x1="40.176" y1="78.0165" x2="40.176" y2="2.9658">
				<stop  offset="0" style="stop-color:#17171A"/>
				<stop  offset="1" style="stop-color:#3F4045"/>
			</linearGradient>
			<path class="epbs-logo-st13" d="M25.8,78c-8.5,0-13.4,0-18.3-4.9c-4.9-4.9-4.9-9.8-4.9-18.3V26.2c0-8.5,0-13.4,4.9-18.3
				C12.4,3,17.3,3,25.8,3h28.7C63,3,67.9,3,72.8,7.9c4.9,4.9,4.9,9.8,4.9,18.3v28.7c0,8.5,0,13.4-4.9,18.3
				C68.6,77.3,62.3,78,54.5,78H25.8z"/>
			<linearGradient id="Rectangle_7_7_" gradientUnits="userSpaceOnUse" x1="40.1479" y1="77.7268" x2="40.1479" y2="3.2624">
				<stop  offset="0" style="stop-color:#17171A"/>
				<stop  offset="1" style="stop-color:#3F4045"/>
			</linearGradient>
			<path id="Rectangle_7_1_" class="epbs-logo-st14" d="M25.9,77.7c-8.4,0-13.3,0-18.2-4.9C2.9,68,2.9,63.2,2.9,54.7V26.3
				c0-8.4,0-13.3,4.9-18.2c4.9-4.9,9.7-4.9,18.2-4.9h28.4c8.4,0,13.3,0,18.2,4.9c4.9,4.9,4.9,9.7,4.9,18.2v28.4
				c0,8.4,0,13.3-4.9,18.2c-4.1,4.1-10.5,4.9-18.2,4.9H25.9z"/>
		</g>
	</g>
	<path id="Rectangle_7_4_" class="epbs-logo-st15" d="M25.9,77c-8.4,0-13.2,0-18-4.8C3,67.4,3,62.5,3,54.1V25.9c0-8.4,0-13.2,4.8-18
		C12.7,3,17.5,3,25.9,3h28.3c8.4,0,13.2,0,18,4.8c4.8,4.8,4.8,9.7,4.8,18v28.3c0,8.4,0,13.2-4.8,18c-4.8,4.8-9.6,4.8-18,4.8H25.9z"
		/>
</g>
<g>
	<g>
		<defs>
			<rect id="SVGID_11_" x="12" y="14" width="56" height="50.4"/>
		</defs>
		<clipPath id="SVGID_12_">
			<use xlink:href="#SVGID_11_"  style="overflow:visible;"/>
		</clipPath>
		<g class="epbs-logo-st16">
			<path class="epbs-logo-st17" d="M40.9,64.4c-11.8,0-21.5-9.6-21.5-21.5s9.6-21.5,21.5-21.5c8.9,0,17,5.6,20.1,14l-3.1,1.2
				c-2.7-7.1-9.5-11.9-17.1-11.9c-10,0-18.1,8.1-18.1,18.2s8.2,18.2,18.2,18.2c3.8,0,7.5-1.2,10.6-3.4l1.9,2.7
				C49.7,63.1,45.4,64.4,40.9,64.4z"/>
			<path class="epbs-logo-st18" d="M40.9,27.2c2.3,0,4.5,0.5,6.5,1.5l-1.4,3c-1.6-0.7-3.3-1.2-5.2-1.2c-6.7,0-12.2,5.6-12.2,12.4
				c0,6.9,5.5,12.4,12.2,12.4v3.3c-8.6,0-15.5-7.1-15.5-15.7C25.4,34.2,32.3,27.2,40.9,27.2z"/>
			<path class="epbs-logo-st19" d="M63.5,34.5c-3.4-9.2-12.2-15.7-22.6-15.7c-13.3,0-24.1,10.8-24.1,24.1c0,5.8,2,11,5.4,15.2l-3.7,3.1
				c-4.1-5-6.5-11.4-6.5-18.3C12,27,25,14,40.9,14c12.5,0,23.1,7.9,27.1,18.9L63.5,34.5z"/>
		</g>
	</g>
</g>
</svg>
